<svg width="68" height="88" viewBox="0 0 68 88" fill="none" xmlns="http://www.w3.org/2000/svg">
<path d="M1.87379 37.3323C2.56359 43.3844 4.94889 49.1184 8.75494 53.8741C9.31934 54.5775 10.1033 55.3855 11.022 56.3324C11.0961 56.4087 11.171 56.486 11.2468 56.5641C12.2454 57.5941 13.3607 58.757 14.398 60.0235C16.4539 62.5335 18.3333 65.6017 18.3333 69.0832V79.4999C18.3333 81.4448 19.1059 83.3101 20.4812 84.6853C21.8564 86.0606 23.7217 86.8332 25.6666 86.8332H42.3333C44.2782 86.8332 46.1435 86.0606 47.5187 84.6853C48.894 83.3101 49.6666 81.4448 49.6666 79.4999V69.0832C49.6666 65.6019 51.5447 62.5338 53.5991 60.0247C54.6358 58.7587 55.7502 57.5965 56.7479 56.5676C56.8261 56.487 56.9033 56.4073 56.9797 56.3287C57.894 55.3865 58.6741 54.5827 59.2361 53.8831L1.87379 37.3323ZM1.87379 37.3323C1.18394 31.2799 2.21788 25.1558 4.8565 19.6653M1.87379 37.3323L4.8565 19.6653M4.8565 19.6653C7.49511 14.1749 11.6311 9.54146 16.7879 6.29888M4.8565 19.6653L16.7879 6.29888M16.7879 6.29888C21.9448 3.05629 27.9127 1.33643 34.0043 1.3374M16.7879 6.29888L34.0043 1.3374M34.0043 1.3374C40.0959 1.33838 46.0633 3.06015 51.2191 6.30439M34.0043 1.3374L51.2191 6.30439M51.2191 6.30439C56.3749 9.54863 60.5094 14.1833 63.1462 19.6747M51.2191 6.30439L63.1462 19.6747M63.1462 19.6747C65.7831 25.166 66.8151 31.2905 66.1233 37.3426M63.1462 19.6747L66.1233 37.3426M66.1233 37.3426C65.4315 43.3948 63.0441 49.1284 59.2362 53.883L66.1233 37.3426ZM24.5601 67.1091L24.6579 67.9999H25.5541H42.4458H43.342L43.4398 67.1091C43.956 62.4082 46.3478 58.4682 50.4309 54.0236C50.5765 53.8665 50.968 53.4566 51.4522 52.9496C51.7377 52.6506 52.0555 52.3178 52.3741 51.9833C53.202 51.1139 54.0849 50.1814 54.2968 49.9172L54.2973 49.9165C57.3579 46.0929 59.2763 41.4826 59.8315 36.6165C60.3867 31.7504 59.5563 26.8265 57.4357 22.4117C55.3152 17.9969 51.9908 14.2708 47.8455 11.6626C43.7001 9.05431 38.9023 7.66995 34.0047 7.66891C29.107 7.66786 24.3087 9.05017 20.1622 11.6567C16.0157 14.2631 12.6897 17.9878 10.5673 22.4017C8.4449 26.8155 7.61233 31.7391 8.16549 36.6055C8.71865 41.4718 10.635 46.0829 13.694 49.9078L13.6955 49.9097C13.9092 50.1756 14.7951 51.11 15.6244 51.9804C15.8939 52.2632 16.1623 52.5442 16.4109 52.8045C16.9587 53.3781 17.4099 53.8506 17.5631 54.0176L17.5636 54.0181C21.6517 58.4675 24.0438 62.4078 24.5601 67.1091ZM43.3333 75.3332V74.3332H42.3333H25.6666H24.6666V75.3332V79.4999V80.4999H25.6666H42.3333H43.3333V79.4999V75.3332ZM46.5833 34.6832L30.8333 55.6832V42.0166V41.0166H29.8333H21.4158L37.1666 20.0015V32.6832V33.6832V33.6874H38.1666V34.6832H46.5833Z" stroke="#393E46" stroke-width="2"/>
</svg>
