<svg width="80" height="84" viewBox="0 0 80 84" fill="none" xmlns="http://www.w3.org/2000/svg">
<path d="M17.1667 59.6667H18.1667V58.6667V42V41H17.1667H13H12V42V58.6667V59.6667H13H17.1667ZM42.1667 59.6667H43.1667V58.6667V25.3334V24.3334H42.1667H38H37V25.3334V58.6667V59.6667H38H42.1667ZM67.1667 59.6667H68.1667V58.6667V8.66671V7.66671H67.1667H63H62V8.66671V58.6667V59.6667H63H67.1667ZM24.5 66H5.66667V34.6667H24.5V66ZM49.5 66H30.6667V18H49.5V66ZM74.5 66H55.6667V1.33337H74.5V66ZM78.6667 82.6667H1.5V76.3334H78.6667V82.6667Z" stroke="#393E46" stroke-width="2"/>
</svg>
