<svg width="76" height="88" viewBox="0 0 76 88" fill="none" xmlns="http://www.w3.org/2000/svg">
<path d="M62.1155 21.5737L67.4625 16.2267L71.94 20.7041L66.5929 26.0512L65.9605 26.6836L66.5187 27.3824C70.8083 32.7526 73.4944 39.2248 74.2681 46.0541C75.0417 52.8835 73.8714 59.7926 70.8917 65.9862C67.9121 72.1798 63.2442 77.4063 57.4254 81.0641C51.6065 84.722 44.8731 86.6626 38 86.6626C31.1269 86.6626 24.3935 84.722 18.5747 81.0641C12.7558 77.4063 8.08798 72.1798 5.10834 65.9862C2.1287 59.7926 0.95835 52.8835 1.73198 46.0541C2.50561 39.2248 5.19178 32.7526 9.48135 27.3824L10.0397 26.6834L9.40688 26.0509L4.06031 20.7081L8.53752 16.2308L13.8846 21.5779L15.5917 23.285V21.3508C21.9891 16.3617 29.8765 13.6537 37.9984 13.6666H38C46.6192 13.6666 54.538 16.651 60.7837 21.6475L61.4826 22.2066L62.1155 21.5737ZM41.1667 46V47H42.1667H52.6358L34.8334 70.1432V54.3333V53.3333H33.8334H23.3633L41.1667 30.171V46ZM38 80.3333C41.9616 80.3333 45.8843 79.553 49.5443 78.037C53.2043 76.521 56.5298 74.2989 59.3311 71.4977C62.1323 68.6964 64.3544 65.3709 65.8704 61.7109C67.3864 58.0509 68.1667 54.1282 68.1667 50.1666C68.1667 46.2051 67.3864 42.2823 65.8704 38.6223C64.3544 34.9624 62.1323 31.6368 59.3311 28.8356C56.5298 26.0343 53.2043 23.8123 49.5443 22.2963C45.8843 20.7802 41.9616 20 38 20C29.9993 20 22.3263 23.1782 16.669 28.8356C11.0116 34.4929 7.83335 42.1659 7.83335 50.1666C7.83335 58.1673 11.0116 65.8403 16.669 71.4977C22.3263 77.155 29.9993 80.3333 38 80.3333ZM22.3334 1.16663H53.6667V7.49996H22.3334V1.16663Z" stroke="#393E46" stroke-width="2"/>
</svg>
