<svg width="26" height="22" viewBox="0 0 26 22" fill="none" xmlns="http://www.w3.org/2000/svg">
<path d="M18.125 2.93716C17.175 2.937 16.2628 3.30981 15.5849 3.97536C14.9069 4.64092 14.5174 5.54602 14.5 6.4959L14.465 8.46465C14.463 8.57036 14.4386 8.67444 14.3935 8.77006C14.3484 8.86568 14.2836 8.95069 14.2033 9.0195C14.123 9.08832 14.0291 9.13939 13.9277 9.16936C13.8264 9.19933 13.7198 9.20752 13.615 9.19341L11.6638 8.92841C9.09625 8.57841 6.63625 7.39591 4.27625 5.42966C3.52875 9.56715 4.98875 12.4334 8.505 14.6447L10.6888 16.0172C10.7925 16.0824 10.8787 16.172 10.9398 16.2782C11.0009 16.3844 11.0351 16.504 11.0392 16.6265C11.0434 16.749 11.0176 16.8706 10.9639 16.9808C10.9102 17.0909 10.8303 17.1863 10.7313 17.2584L8.74125 18.7122C9.925 18.7859 11.0488 18.7334 11.9813 18.5484C17.8788 17.3709 21.8 12.9334 21.8 5.6134C21.8 5.0159 20.535 2.93716 18.125 2.93716ZM12 6.44965C12.0218 5.24472 12.3986 4.07299 13.0832 3.08118C13.7678 2.08937 14.7298 1.32155 15.8486 0.873863C16.9675 0.426173 18.1936 0.318504 19.3734 0.564339C20.5532 0.810174 21.6343 1.39859 22.4813 2.2559C23.37 2.24965 24.1263 2.47465 25.8175 1.44966C25.3988 3.49966 25.1925 4.38965 24.3 5.6134C24.3 15.1659 18.4288 19.8109 12.4713 20.9997C8.38625 21.8147 2.44625 20.4759 0.743752 18.6984C1.61125 18.6309 5.13625 18.2522 7.17375 16.7609C5.45 15.6247 -1.41125 11.5872 3.0975 0.732155C5.21375 3.2034 7.36 4.8859 9.535 5.7784C10.9825 6.37215 11.3375 6.35965 12.0013 6.4509L12 6.44965Z" fill="#767A81"/>
</svg>
