<svg width="26" height="22" viewBox="0 0 26 22" fill="none" xmlns="http://www.w3.org/2000/svg">
<path d="M18.125 2.93764C17.175 2.93748 16.2628 3.3103 15.5849 3.97585C14.9069 4.64141 14.5174 5.54651 14.5 6.49639L14.465 8.46514C14.463 8.57085 14.4386 8.67493 14.3935 8.77055C14.3484 8.86617 14.2836 8.95118 14.2033 9.01999C14.123 9.08881 14.0291 9.13987 13.9278 9.16984C13.8264 9.19981 13.7198 9.20801 13.615 9.19389L11.6638 8.92889C9.09626 8.57889 6.63626 7.39639 4.27626 5.43014C3.52876 9.56764 4.98876 12.4339 8.50501 14.6451L10.6888 16.0176C10.7925 16.0828 10.8787 16.1725 10.9398 16.2787C11.0009 16.3849 11.0351 16.5045 11.0393 16.627C11.0434 16.7495 11.0176 16.8711 10.9639 16.9813C10.9102 17.0914 10.8303 17.1867 10.7313 17.2589L8.74126 18.7126C9.92501 18.7864 11.0488 18.7339 11.9813 18.5489C17.8788 17.3714 21.8 12.9339 21.8 5.61389C21.8 5.01639 20.535 2.93764 18.125 2.93764ZM12 6.45014C12.0218 5.24521 12.3986 4.07348 13.0832 3.08167C13.7678 2.08986 14.7298 1.32204 15.8487 0.874352C16.9675 0.426661 18.1936 0.318992 19.3734 0.564827C20.5532 0.810662 21.6343 1.39907 22.4813 2.25639C23.37 2.25014 24.1263 2.47514 25.8175 1.45014C25.3988 3.50014 25.1925 4.39014 24.3 5.61389C24.3 15.1664 18.4288 19.8114 12.4713 21.0001C8.38626 21.8151 2.44626 20.4764 0.743755 18.6989C1.61126 18.6314 5.13626 18.2526 7.17376 16.7614C5.45001 15.6251 -1.41124 11.5876 3.09751 0.732643C5.21376 3.20389 7.36001 4.88639 9.53501 5.77889C10.9825 6.37264 11.3375 6.36014 12.0013 6.45139L12 6.45014Z" fill="#EEEEEE"/>
</svg>
