<svg width="100" height="100" viewBox="0 0 100 100" fill="none" xmlns="http://www.w3.org/2000/svg">
<path d="M50 8C60.5 7.99988 81.3 13.7 82.5 40.5C82.6667 45 80.8 56 72 64C65.6 70.8 65.5 75 65.5 76V85.318C65.5 87.3554 64.6907 89.3093 63.25 90.75V90.75C61.8093 92.1906 59.8573 93 57.8199 93C55.0612 93 51.3107 93 50 93M50 74.4999H59.5C59.8333 71.6665 61.3 65.2999 64.5 62.4999C68.5 58.9999 75.5 52.4999 75.5 40.9999C75.5 29.4999 68.5 13.9999 50 13.9999" stroke="#393E46" stroke-width="2"/>
<path d="M58.5 80.5H41V87H58.5V80.5Z" stroke="#393E46" stroke-width="2"/>
<path d="M50.5099 8C40.0099 7.99988 19.2099 13.7 18.0099 40.5C17.8433 45 19.7099 56 28.5099 64C34.9099 70.8 35.0099 75 35.0099 76V85.318C35.0099 87.3554 35.8193 89.3093 37.2599 90.75V90.75C38.7006 92.1906 40.6527 93 42.6901 93C45.4488 93 49.1992 93 50.5099 93M50.5099 74.4999H41.0099C40.6766 71.6665 39.2099 65.2999 36.0099 62.4999C32.0099 58.9999 25.0099 52.4999 25.0099 40.9999C25.0099 29.4999 32.0099 13.9999 50.5099 13.9999" stroke="#393E46" stroke-width="2"/>
<path d="M63.5 40L48 61V46H38L54 25V40H63.5Z" stroke="#393E46" stroke-width="2"/>
</svg>
