<svg width="84" height="84" viewBox="0 0 84 84" fill="none" xmlns="http://www.w3.org/2000/svg">
<path d="M37.8334 57.6667H28.4167V51.3334H50.3334C51.1511 51.3334 51.9354 51.0085 52.5136 50.4303C53.0919 49.8521 53.4167 49.0678 53.4167 48.25C53.4167 47.4323 53.0919 46.648 52.5136 46.0698C51.9354 45.4916 51.1511 45.1667 50.3334 45.1667H33.6667C31.1693 45.1667 28.7741 44.1746 27.0081 42.4086C25.2422 40.6427 24.25 38.2475 24.25 35.75C24.25 33.2526 25.2422 30.8574 27.0081 29.0915C28.7741 27.3255 31.1693 26.3334 33.6667 26.3334H37.8334H38.8334V25.3334V18H45.1667V25.3334V26.3334H46.1667H55.5834V32.6667H33.6667C32.849 32.6667 32.0647 32.9916 31.4865 33.5698C30.9082 34.148 30.5834 34.9323 30.5834 35.75C30.5834 36.5678 30.9082 37.3521 31.4865 37.9303C32.0647 38.5085 32.849 38.8334 33.6667 38.8334H50.3334C52.8308 38.8334 55.226 39.8255 56.992 41.5915C58.7579 43.3574 59.75 45.7526 59.75 48.25C59.75 50.7475 58.7579 53.1427 56.992 54.9086C55.226 56.6746 52.8308 57.6667 50.3334 57.6667H46.1667H45.1667V58.6667V66H38.8334V58.6667V57.6667H37.8334ZM42 82.6667C19.5398 82.6667 1.33337 64.4603 1.33337 42C1.33337 19.5398 19.5398 1.33337 42 1.33337C64.4603 1.33337 82.6667 19.5398 82.6667 42C82.6667 64.4603 64.4603 82.6667 42 82.6667ZM42 76.3334C51.1058 76.3334 59.8386 72.7161 66.2774 66.2774C72.7161 59.8386 76.3334 51.1058 76.3334 42C76.3334 32.8943 72.7161 24.1615 66.2774 17.7227C59.8386 11.284 51.1058 7.66671 42 7.66671C32.8943 7.66671 24.1615 11.284 17.7227 17.7227C11.284 24.1615 7.66671 32.8943 7.66671 42C7.66671 51.1058 11.284 59.8386 17.7227 66.2774C24.1615 72.7161 32.8943 76.3334 42 76.3334Z" stroke="#393E46" stroke-width="2"/>
</svg>
