<svg width="80" height="84" viewBox="0 0 80 84" fill="none" xmlns="http://www.w3.org/2000/svg">
<path d="M41.9364 16.3874L42.695 17.8257L43.6363 16.4997C48.361 9.84415 56.1295 5.50004 64.9167 5.50004H78.5V14.9167C78.5 29.3228 66.8228 41 52.4167 41H46.1667H45.1667V42V46.1667V47.1667H46.1667H66V75.3334C66 79.3853 62.7186 82.6667 58.6667 82.6667H25.3334C21.2815 82.6667 18 79.3853 18 75.3334V47.1667H37.8334H38.8334V46.1667V37.8334V36.8334H37.8334H29.5C13.944 36.8334 1.33337 24.2228 1.33337 8.66671V1.33337H17C27.8225 1.33337 37.2149 7.43549 41.9364 16.3874ZM59.6667 54.5V53.5H58.6667H25.3334H24.3334V54.5V75.3334V76.3334H25.3334H58.6667H59.6667V75.3334V54.5ZM72.1667 12.8334V11.8334H71.1667H64.9167C54.0103 11.8334 45.1667 20.6769 45.1667 31.5834V33.6667V34.6667H46.1667H52.4167C63.3232 34.6667 72.1667 25.8232 72.1667 14.9167V12.8334ZM8.66671 7.66671H7.66671V8.66671C7.66671 20.7232 17.4436 30.5 29.5 30.5H37.8334H38.8334V29.5C38.8334 17.4436 29.0565 7.66671 17 7.66671H8.66671Z" stroke="#393E46" stroke-width="2"/>
</svg>
